<?xml version="1.0" encoding="UTF-8"?>
<!-- Generator: Adobe Illustrator 18.1.1, SVG Export Plug-In . SVG Version: 6.00 Build 0)  -->
<svg xmlns="http://www.w3.org/2000/svg" xmlns:cc="http://creativecommons.org/ns#" xmlns:dc="http://purl.org/dc/elements/1.1/" xmlns:inkscape="http://www.inkscape.org/namespaces/inkscape" xmlns:rdf="http://www.w3.org/1999/02/22-rdf-syntax-ns#" xmlns:sodipodi="http://sodipodi.sourceforge.net/DTD/sodipodi-0.dtd" xmlns:svg="http://www.w3.org/2000/svg" version="1.1" id="Capa_1" x="0px" y="0px" viewBox="0 0 345 425" xml:space="preserve" inkscape:version="0.91 r13725" sodipodi:docname="file128.svg" width="345" height="425">
<metadata id="metadata13">
    <rdf:RDF>
        <cc:Work rdf:about="">
            <dc:format>image/svg+xml</dc:format>
            <dc:type rdf:resource="http://purl.org/dc/dcmitype/StillImage"/>
        </cc:Work>
    </rdf:RDF>
</metadata>
<defs id="defs11"/>
<sodipodi:namedview pagecolor="#ffffff" bordercolor="#666666" borderopacity="1" objecttolerance="10" gridtolerance="10" guidetolerance="10" inkscape:pageopacity="0" inkscape:pageshadow="2" inkscape:window-width="1600" inkscape:window-height="837" id="namedview9" showgrid="false" inkscape:zoom="0.78530447" inkscape:cx="400.03981" inkscape:cy="20.075162" inkscape:window-x="-8" inkscape:window-y="-8" inkscape:window-maximized="1" inkscape:current-layer="Capa_1"/>
<g id="g3" transform="translate(-39.667,0)">
    <g id="g5">
        <path d="m 385.333,17 c 0,-9.35 -7.65,-17 -17,-17 L 56.667,0 c -9.35,0 -17,7.65 -17,17 l 0,391 c 0,9.35 7.65,17 17,17 l 311.667,0 c 9.35,0 17,-7.65 17,-17 l 0,-391 z m -311.666,17 277.667,0 0,357 -277.667,0 0,-357 z" id="path7" inkscape:connector-curvature="0"/>
        <path d="m 289,99.167 -153,0 c -9.35,0 -17,7.65 -17,17 0,9.35 7.65,17 17,17 l 153,0 c 9.35,0 17,-7.65 17,-17 0,-9.35 -7.65,-17 -17,-17 z" id="path9" inkscape:connector-curvature="0"/>
        <path d="m 289,189.833 -153,0 c -9.35,0 -17,7.65 -17,17 0,9.35 7.65,17 17,17 l 153,0 c 9.35,0 17,-7.65 17,-17 0,-9.35 -7.65,-17 -17,-17 z" id="path11" inkscape:connector-curvature="0"/>
        <path d="m 289,286.167 -153,0 c -9.35,0 -17,7.65 -17,17 0,9.35 7.65,17 17,17 l 153,0 c 9.35,0 17,-7.65 17,-17 0,-9.35 -7.65,-17 -17,-17 z" id="path13" inkscape:connector-curvature="0"/>
    </g>
</g>
<path style="color:#000000;font-style:normal;font-variant:normal;font-weight:normal;font-stretch:normal;font-size:medium;line-height:normal;font-family:sans-serif;text-indent:0;text-align:start;text-decoration:none;text-decoration-line:none;text-decoration-style:solid;text-decoration-color:#000000;letter-spacing:normal;word-spacing:normal;text-transform:none;direction:ltr;block-progression:tb;writing-mode:lr-tb;baseline-shift:baseline;text-anchor:start;white-space:normal;clip-rule:nonzero;display:inline;overflow:visible;visibility:visible;opacity:0.98999999;isolation:auto;mix-blend-mode:normal;color-interpolation:sRGB;color-interpolation-filters:linearRGB;solid-color:#000000;solid-opacity:1;fill:#aaaaaa;fill-opacity:1;fill-rule:evenodd;stroke:none;stroke-width:20;stroke-linecap:butt;stroke-linejoin:miter;stroke-miterlimit:4;stroke-dasharray:none;stroke-dashoffset:0;stroke-opacity:1;color-rendering:auto;image-rendering:auto;shape-rendering:auto;text-rendering:auto;enable-background:accumulate" d="m 160.87792,107.53321 c -46.87234,5.09511 -84.648114,41.04022 -92.519524,87.03907 l 4.65625,0 7.69922,0 7.58203,0 0.41016,0 c 7.39842,-35.07387 36.188104,-62.08437 72.171864,-66.87696 l 0,-1.9707 0,-7.83399 0,-1.94921 c 0,-0.55711 -0.54757,-1.56921 0,-1.67188 0.14093,-0.0264 0.26881,-0.0432 0.40821,-0.0684 -0.14528,-0.005 -0.26007,-0.006 -0.40821,-0.0117 -0.68927,-0.0258 0.5908,-1.94767 0,-2.06836 l 0,-4.58789 z m 28.01563,0.70703 0,4.83594 0,7.69922 0,7.58203 0,0.16797 c 35.27578,6.88279 62.68697,35.31645 68.00195,71.14063 l 10.94727,0 7.70117,0 1.52734,0 c -5.65199,-46.7117 -41.99232,-84.10296 -88.17773,-91.42579 z M 87.485356,222.89063 c -0.37173,1.72067 -0.40201,3.05471 0.48828,3.43165 -0.185,-1.13659 -0.34832,-2.28024 -0.48828,-3.43165 z m -14.22657,2.41016 c -0.13618,0.10059 -0.31034,0.22626 -0.47461,0.3457 0.01595,-0.005 0.03302,-0.008 0.04883,-0.0137 1.11901,-0.85128 0.93554,-0.70857 0.42578,-0.33203 z m -1.27343,0.89844 c -0.08331,0.0538 -0.22346,0.15499 -0.26172,0.17187 -1.46606,0.64702 -2.65618,0.98095 -3.79492,1.15625 6.52142,45.16952 41.786784,81.20075 86.582024,88.86524 -1.7e-4,-0.49088 4.8e-4,-0.98178 0,-1.47266 -0.004,-2.73609 -0.0124,-5.47302 0.0215,-8.20898 0.002,-3.14158 -0.31819,-6.30515 0.16992,-9.42383 0.0291,-0.1086 0.009,-0.0318 0.0332,-0.12305 -0.0259,-0.36829 -0.0598,-0.73669 -0.0937,-1.09375 -34.31087,-7.17836 -60.946864,-34.82215 -66.654294,-69.66015 -0.32048,6.7e-4 -0.64046,0.002 -0.96094,0.002 -0.43394,4.1e-4 -0.86878,2e-5 -1.30273,0 -2.45226,-0.01 -4.90628,-0.0694 -7.35742,0.0312 -1.64811,0.048 -3.2745,0.0641 -4.91993,-0.0781 -0.48788,-0.0422 -0.97614,-0.0968 -1.46093,-0.16601 z m 189.738274,2.70508 c -1.46512,0.0211 -2.92628,0.11646 -4.38672,0.36914 -0.37158,-0.0918 -0.74914,-0.16413 -1.125,-0.24219 -6.82689,34.81994 -34.67339,61.94173 -69.87305,67.70508 0.003,1.59819 0.007,3.19674 0.006,4.79492 0,0.43283 -1e-4,0.86406 0,1.29687 1.1e-4,0.4149 0.39835,1.20968 0.0254,1.26954 0.47094,0.12239 -0.0234,1.05566 -0.0234,1.57422 -3e-5,0.6363 5e-5,1.27385 0,1.91015 -3.7e-4,2.62825 -5e-5,5.25651 0,7.88477 -0.007,0.0983 4.3e-4,0.84469 0.006,1.5 46.11908,-6.15588 82.93274,-42.24595 90.1836,-88.01563 -1.19805,-4.8e-4 -2.39571,0.002 -3.59375,-0.002 -2.597,-1e-4 -5.19431,0.0502 -7.79102,0.002 -0.65434,-0.0211 -1.30861,-0.038 -1.96094,-0.0469 -0.48924,-0.007 -0.97842,-0.007 -1.46679,0 z m -94.58008,71.0332 c -0.028,0.14667 -0.068,0.29153 -0.0879,0.43945 0.16136,1.28172 0.18877,2.80723 0.19726,4.31836 0.0218,-0.87265 0.0618,-1.74399 0.14063,-2.61914 -0.0236,0.17817 -0.0387,0.38863 -0.0684,0.4961 -0.0798,0.28902 0.0102,-0.59865 0.0156,-0.89844 0.0471,-0.53865 -0.0734,-1.14937 -0.19726,-1.73633 z m 17.10547,17.11914 c -0.67208,0.0267 -1.47447,0.18909 -2.33594,0.41016 1.07019,-0.0969 2.13641,-0.20915 3.19727,-0.33789 -0.25893,-0.0544 -0.53934,-0.0851 -0.86133,-0.0723 z" id="path4297" inkscape:connector-curvature="0">
 <animateTransform attributeName="transform" type="rotate" from="0 172 212" to="360 172 212" dur="2s" repeatCount="indefinite" />
</path>
</svg>
