<?xml version="1.0" encoding="UTF-8" standalone="no"?>
<!-- Generator: Adobe Illustrator 18.1.1, SVG Export Plug-In . SVG Version: 6.00 Build 0)  -->

<svg
   xmlns:dc="http://purl.org/dc/elements/1.1/"
   xmlns:cc="http://creativecommons.org/ns#"
   xmlns:rdf="http://www.w3.org/1999/02/22-rdf-syntax-ns#"
   xmlns:svg="http://www.w3.org/2000/svg"
   xmlns="http://www.w3.org/2000/svg"
   xmlns:sodipodi="http://sodipodi.sourceforge.net/DTD/sodipodi-0.dtd"
   xmlns:inkscape="http://www.inkscape.org/namespaces/inkscape"
   version="1.1"
   id="Capa_1"
   x="0px"
   y="0px"
   viewBox="0 0 345 425"
   xml:space="preserve"
   inkscape:version="0.91 r13725"
   sodipodi:docname="file128.svg"
   width="345"
   height="425"><g
     id="g3"
     transform="translate(-39.667,0)"><g
       id="g5"><path
         d="m 385.333,17 c 0,-9.35 -7.65,-17 -17,-17 L 56.667,0 c -9.35,0 -17,7.65 -17,17 l 0,391 c 0,9.35 7.65,17 17,17 l 311.667,0 c 9.35,0 17,-7.65 17,-17 l 0,-391 z m -311.666,17 277.667,0 0,357 -277.667,0 0,-357 z"
         id="path7"
         inkscape:connector-curvature="0" /><path
         d="m 289,99.167 -153,0 c -9.35,0 -17,7.65 -17,17 0,9.35 7.65,17 17,17 l 153,0 c 9.35,0 17,-7.65 17,-17 0,-9.35 -7.65,-17 -17,-17 z"
         id="path9"
         inkscape:connector-curvature="0" /><path
         d="m 289,189.833 -153,0 c -9.35,0 -17,7.65 -17,17 0,9.35 7.65,17 17,17 l 153,0 c 9.35,0 17,-7.65 17,-17 0,-9.35 -7.65,-17 -17,-17 z"
         id="path11"
         inkscape:connector-curvature="0" /><path
         d="m 289,286.167 -153,0 c -9.35,0 -17,7.65 -17,17 0,9.35 7.65,17 17,17 l 153,0 c 9.35,0 17,-7.65 17,-17 0,-9.35 -7.65,-17 -17,-17 z"
         id="path13"
         inkscape:connector-curvature="0" /></g></g></svg>